<svg xmlns="http://www.w3.org/2000/svg" version="1.0" width="512.000000pt" height="512.000000pt" viewBox="0 0 512.000000 512.000000" preserveAspectRatio="xMidYMid meet">

<g transform="translate(0.000000,512.000000) scale(0.100000,-0.100000)" fill="#ffffff" stroke="none">
<path d="M3375 5111 c-27 -12 -75 -63 -475 -514 l-344 -388 -290 290 c-190 189 -301 292 -318 296 -16 4 -40 4 -54 1 -31 -8 -72 -50 -76 -79 -9 -55 13 -83 249 -319 l238 -238 -915 0 c-1009 0 -983 1 -1104 -63 -78 -41 -182 -145 -223 -223 -66 -124 -63 -47 -63 -1579 0 -1513 -2 -1453 56 -1568 54 -105 141 -194 240 -243 113 -55 78 -54 1157 -54 l997 0 0 -110 0 -110 -659 0 -659 0 -31 -31 c-42 -42 -43 -95 -2 -141 l29 -33 1432 0 1432 0 29 33 c41 46 40 99 -2 141 l-31 31 -659 0 -659 0 0 110 0 110 998 0 c1078 0 1043 -1 1156 54 137 68 245 205 281 358 22 96 22 2812 0 2907 -41 174 -191 333 -370 392 -32 11 -240 15 -986 19 l-947 5 354 398 c195 219 357 410 360 424 20 79 -66 154 -141 124z m1335 -1192 c80 -37 125 -81 162 -157 l33 -67 3 -1364 c2 -902 -1 -1383 -8 -1419 -20 -108 -90 -201 -184 -244 l-51 -23 -2105 0 -2105 0 -51 23 c-94 43 -164 136 -184 244 -7 36 -10 517 -8 1419 l3 1364 26 55 c14 31 40 72 57 91 39 44 119 88 180 99 26 4 976 7 2112 6 l2065 -1 55 -26z" fill="#ffffff"/>
<path d="M1634 3256 c-181 -41 -343 -196 -389 -371 -55 -214 38 -454 220 -564 30 -19 83 -44 116 -56 l61 -22 -1 -124 c-3 -202 41 -363 140 -515 334 -510 1033 -576 1451 -137 169 178 251 393 247 652 l-1 124 61 22 c128 47 212 113 276 220 50 84 75 171 75 264 0 147 -47 259 -155 367 -138 139 -332 185 -520 122 -135 -45 -216 -116 -311 -276 -1 -1 -41 10 -90 24 -81 25 -103 28 -254 28 -151 0 -173 -3 -254 -28 -49 -14 -89 -25 -90 -24 -72 121 -129 183 -216 235 -96 58 -256 84 -366 59z m242 -234 c82 -42 140 -120 164 -219 15 -64 55 -103 105 -103 18 0 66 16 106 35 110 51 188 69 309 69 121 0 199 -18 309 -69 40 -19 88 -35 106 -35 50 0 90 39 105 103 24 99 81 176 164 220 61 32 203 31 266 -1 109 -57 164 -148 165 -272 0 -89 -26 -151 -87 -211 -58 -56 -116 -80 -212 -88 -91 -7 -111 -17 -132 -68 -12 -27 -11 -45 7 -130 53 -249 -16 -480 -196 -659 -136 -135 -302 -204 -495 -204 -119 0 -209 22 -319 76 -76 38 -110 62 -176 128 -180 179 -249 410 -196 659 18 85 19 103 7 130 -21 51 -41 61 -132 68 -96 8 -154 32 -212 88 -61 60 -87 122 -87 211 1 138 66 232 200 287 47 20 181 11 231 -15z" fill="#ffffff"/>
</g>
</svg>